<svg width="35" height="34" viewBox="0 0 35 34" fill="none" xmlns="http://www.w3.org/2000/svg">
<g filter="url(#filter0_d_2262_360)">
<circle cx="17.918" cy="15" r="11" fill="white"/>
</g>
<path d="M20.612 7.66724H14.306C12.2536 7.66724 10.584 9.33689 10.584 11.3892V17.6953C10.584 19.7476 12.2536 21.4172 14.306 21.4172H20.6121C22.6643 21.4172 24.334 19.7476 24.334 17.6953V11.3892C24.334 9.33689 22.6643 7.66724 20.612 7.66724V7.66724ZM23.5279 17.6953C23.5279 19.3031 22.2199 20.6112 20.612 20.6112H14.306C12.6981 20.6112 11.3901 19.3031 11.3901 17.6953V11.3892C11.3901 9.78137 12.6981 8.47332 14.306 8.47332H20.6121C22.2199 8.47332 23.5279 9.78137 23.5279 11.3892V17.6953Z" fill="#040E29"/>
<path d="M17.4589 10.7825C15.3858 10.7825 13.6992 12.469 13.6992 14.5421C13.6992 16.6152 15.3858 18.3018 17.4589 18.3018C19.532 18.3018 21.2185 16.6152 21.2185 14.5421C21.2185 12.469 19.532 10.7825 17.4589 10.7825ZM17.4589 17.4957C15.8303 17.4957 14.5053 16.1708 14.5053 14.5421C14.5053 12.9136 15.8303 11.5886 17.4589 11.5886C19.0875 11.5886 20.4125 12.9136 20.4125 14.5421C20.4125 16.1708 19.0875 17.4957 17.4589 17.4957Z" fill="#040E29"/>
<path d="M21.3082 9.44727C20.6956 9.44727 20.1973 9.94567 20.1973 10.5582C20.1973 11.1708 20.6956 11.6692 21.3082 11.6692C21.9208 11.6692 22.4192 11.1708 22.4192 10.5582C22.4192 9.94556 21.9208 9.44727 21.3082 9.44727ZM21.3082 10.8631C21.1401 10.8631 21.0033 10.7263 21.0033 10.5582C21.0033 10.39 21.1401 10.2533 21.3082 10.2533C21.4764 10.2533 21.6132 10.39 21.6132 10.5582C21.6132 10.7263 21.4764 10.8631 21.3082 10.8631Z" fill="#040E29"/>
<defs>
<filter id="filter0_d_2262_360" x="0.917969" y="0" width="34" height="34" filterUnits="userSpaceOnUse" color-interpolation-filters="sRGB">
<feFlood flood-opacity="0" result="BackgroundImageFix"/>
<feColorMatrix in="SourceAlpha" type="matrix" values="0 0 0 0 0 0 0 0 0 0 0 0 0 0 0 0 0 0 127 0" result="hardAlpha"/>
<feOffset dy="2"/>
<feGaussianBlur stdDeviation="3"/>
<feColorMatrix type="matrix" values="0 0 0 0 0 0 0 0 0 0 0 0 0 0 0 0 0 0 0.04 0"/>
<feBlend mode="normal" in2="BackgroundImageFix" result="effect1_dropShadow_2262_360"/>
<feBlend mode="normal" in="SourceGraphic" in2="effect1_dropShadow_2262_360" result="shape"/>
</filter>
</defs>
</svg>
