<svg width="35" height="34" viewBox="0 0 35 34" fill="none" xmlns="http://www.w3.org/2000/svg">
<g filter="url(#filter0_d_2262_356)">
<circle cx="17.918" cy="15" r="11" fill="white"/>
</g>
<path d="M26.1673 10.9108C25.5878 11.15 24.9703 11.3086 24.3265 11.3856C24.9888 11.0134 25.4943 10.4286 25.732 9.72367C25.1145 10.0702 24.4327 10.3149 23.7061 10.4515C23.1198 9.86392 22.2841 9.5 21.3725 9.5C19.6038 9.5 18.1799 10.8512 18.1799 12.5076C18.1799 12.7459 18.2013 12.9751 18.2539 13.1932C15.5979 13.0713 13.2478 11.8733 11.669 10.0482C11.3933 10.4983 11.2317 11.0134 11.2317 11.568C11.2317 12.6093 11.8014 13.5324 12.6507 14.0668C12.1374 14.0577 11.6339 13.9174 11.2073 13.6965C11.2073 13.7057 11.2073 13.7176 11.2073 13.7295C11.2073 15.1907 12.3147 16.4043 13.7669 16.6839C13.5068 16.7508 13.2234 16.7829 12.9293 16.7829C12.7247 16.7829 12.5183 16.7719 12.3244 16.7316C12.7384 17.9223 13.913 18.7977 15.3096 18.8262C14.2227 19.6264 12.8426 20.1086 11.3485 20.1086C11.0865 20.1086 10.8353 20.0976 10.584 20.0673C11.9991 20.9262 13.6763 21.4167 15.4849 21.4167C21.3638 21.4167 24.5778 16.8333 24.5778 12.8605C24.5778 12.7276 24.5729 12.5993 24.5661 12.4718C25.2002 12.0483 25.7329 11.5194 26.1673 10.9108Z" fill="#040E29"/>
<defs>
<filter id="filter0_d_2262_356" x="0.917969" y="0" width="34" height="34" filterUnits="userSpaceOnUse" color-interpolation-filters="sRGB">
<feFlood flood-opacity="0" result="BackgroundImageFix"/>
<feColorMatrix in="SourceAlpha" type="matrix" values="0 0 0 0 0 0 0 0 0 0 0 0 0 0 0 0 0 0 127 0" result="hardAlpha"/>
<feOffset dy="2"/>
<feGaussianBlur stdDeviation="3"/>
<feColorMatrix type="matrix" values="0 0 0 0 0 0 0 0 0 0 0 0 0 0 0 0 0 0 0.04 0"/>
<feBlend mode="normal" in2="BackgroundImageFix" result="effect1_dropShadow_2262_356"/>
<feBlend mode="normal" in="SourceGraphic" in2="effect1_dropShadow_2262_356" result="shape"/>
</filter>
</defs>
</svg>
